<?xml version="1.0" encoding="UTF-8"?>
<svg width="254px" height="105px" viewBox="0 0 254 105" version="1.1" xmlns="http://www.w3.org/2000/svg" xmlns:xlink="http://www.w3.org/1999/xlink">
    <title>ButtonLogo</title>
    <g id="ButtonLogo" stroke="current" stroke-width="1" fill="current" fill-rule="evenodd">
        <path d="M246,0 C250.418278,0 254,3.581722 254,8 L254,97 C254,101.418278 250.418278,105 246,105 L8,105 C3.581722,105 0,101.418278 0,97 L0,8 C0,3.581722 3.581722,0 8,0 L246,0 Z M246,3 L8,3 C5.3112453,3 3.11818189,5.12230671 3.00461951,7.78311038 L3,8 L3,97 C3,99.6887547 5.12230671,101.881818 7.78311038,101.99538 L8,102 L246,102 C248.688755,102 250.881818,99.8776933 250.99538,97.2168896 L251,97 L251,8 C251,5.3112453 248.877693,3.11818189 246.21689,3.00461951 L246,3 Z" id="Rectangle" fill="#0E79B2" fill-rule="nonzero"></path>
        <polygon id="W" fill="#0E79B2" fill-rule="nonzero" transform="translate(73.427357, 53.761199) rotate(1.000000) translate(-73.427357, -53.761199) " points="58.3448377 83.0004569 72.9644666 32.0439139 88.8184705 83.0004569 100.622181 83.0004569 117.324818 31.1952811 122.416615 31.1952811 122.416615 24.5219413 103.438099 24.5219413 103.438099 31.1952811 109.262806 31.1952811 94.8360486 76.134246 78.9434705 24.5219413 67.4097791 24.5219413 52.4815564 76.134246 38.3248182 31.1952811 43.416615 31.1952811 43.416615 24.5219413 24.4380994 24.5219413 24.4380994 31.1952811 29.6070447 31.1952811 46.6568494 83.0004569"></polygon>
        <path d="M210.320312,79.0195312 C212.921875,79.0195312 215.429688,78.6210938 217.84375,77.8242188 C220.257812,77.0273438 222.660156,75.8085938 225.050781,74.1679688 L225.050781,74.1679688 L222.414062,69.703125 C220.445312,70.828125 218.564453,71.6542969 216.771484,72.1816406 C214.978516,72.7089844 213.132812,72.9726562 211.234375,72.9726562 C208.820312,72.9726562 206.658203,72.3808594 204.748047,71.1972656 C202.837891,70.0136719 201.449219,68.25 200.582031,65.90625 C200.300781,65.1328125 200.083984,64.3183594 199.931641,63.4628906 C199.779297,62.6074219 199.703125,61.6640625 199.703125,60.6328125 L199.703125,60.6328125 L225.929688,60.6328125 C225.929688,59.765625 225.912109,58.875 225.876953,57.9609375 C225.841797,57.046875 225.765625,56.1445312 225.648438,55.2539062 C225.414062,53.4257812 224.998047,51.6328125 224.400391,49.875 C223.802734,48.1171875 222.923828,46.5527344 221.763672,45.1816406 C220.603516,43.8105469 219.103516,42.7089844 217.263672,41.8769531 C215.423828,41.0449219 213.132812,40.6289062 210.390625,40.6289062 C207.554688,40.6289062 205.070312,41.1328125 202.9375,42.140625 C200.804688,43.1484375 199.017578,44.5136719 197.576172,46.2363281 C196.134766,47.9589844 195.050781,49.9746094 194.324219,52.2832031 C193.597656,54.5917969 193.234375,57.046875 193.234375,59.6484375 C193.234375,62.859375 193.662109,65.671875 194.517578,68.0859375 C195.373047,70.5 196.556641,72.515625 198.068359,74.1328125 C199.580078,75.75 201.384766,76.96875 203.482422,77.7890625 C205.580078,78.609375 207.859375,79.0195312 210.320312,79.0195312 Z M218.933594,55.5351562 L200.054688,55.5351562 C200.289062,54.0820312 200.646484,52.7695312 201.126953,51.5976562 C201.607422,50.4257812 202.246094,49.4355469 203.042969,48.6269531 C203.839844,47.8183594 204.806641,47.1972656 205.943359,46.7636719 C207.080078,46.3300781 208.410156,46.1132812 209.933594,46.1132812 C211.550781,46.1132812 212.910156,46.3476562 214.011719,46.8164062 C215.113281,47.2851562 216.015625,47.9414062 216.71875,48.7851562 C217.421875,49.6289062 217.943359,50.625 218.283203,51.7734375 C218.623047,52.921875 218.839844,54.1757812 218.933594,55.5351562 L218.933594,55.5351562 Z" id="e" fill="#0E79B2" fill-rule="nonzero"></path>
        <path d="M185.882812,33.3515625 C186.492188,33.3515625 187.072266,33.2285156 187.623047,32.9824219 C188.173828,32.7363281 188.654297,32.3964844 189.064453,31.9628906 C189.474609,31.5292969 189.802734,31.03125 190.048828,30.46875 C190.294922,29.90625 190.417969,29.3085938 190.417969,28.6757812 C190.417969,28.0664062 190.294922,27.4863281 190.048828,26.9355469 C189.802734,26.3847656 189.474609,25.9042969 189.064453,25.4941406 C188.654297,25.0839844 188.173828,24.7558594 187.623047,24.5097656 C187.072266,24.2636719 186.492188,24.140625 185.882812,24.140625 C185.25,24.140625 184.652344,24.2636719 184.089844,24.5097656 C183.527344,24.7558594 183.041016,25.0839844 182.630859,25.4941406 C182.220703,25.9042969 181.892578,26.3847656 181.646484,26.9355469 C181.400391,27.4863281 181.277344,28.0664062 181.277344,28.6757812 C181.277344,29.3085938 181.400391,29.90625 181.646484,30.46875 C181.892578,31.03125 182.220703,31.5292969 182.630859,31.9628906 C183.041016,32.3964844 183.527344,32.7363281 184.089844,32.9824219 C184.652344,33.2285156 185.25,33.3515625 185.882812,33.3515625 Z M194.601562,78 L194.601562,71.953125 L189.117188,71.953125 L189.117188,41.578125 L177.234375,41.578125 L177.234375,47.625 L182.507812,47.625 L182.507812,71.953125 L177.304688,71.953125 L177.304688,78 L194.601562,78 Z" id="i" fill="#0E79B2" fill-rule="nonzero"></path>
        <path d="M156.601562,78.8085938 C158.570312,78.8085938 160.328125,78.4746094 161.875,77.8066406 C163.421875,77.1386719 164.78125,76.2070312 165.953125,75.0117188 L165.953125,75.0117188 L165.953125,78 L177.835938,78 L177.835938,71.953125 L172.492188,71.953125 L172.492188,23.296875 L160.996094,23.296875 L160.996094,29.34375 L165.953125,29.34375 L165.953125,43.3007812 C164.617188,42.3398438 163.222656,41.6660156 161.769531,41.2792969 C160.316406,40.8925781 158.710938,40.6992188 156.953125,40.6992188 C154.28125,40.6992188 151.855469,41.1503906 149.675781,42.0527344 C147.496094,42.9550781 145.632812,44.2207031 144.085938,45.8496094 C142.539062,47.4785156 141.34375,49.4472656 140.5,51.7558594 C139.65625,54.0644531 139.234375,56.625 139.234375,59.4375 C139.234375,62.53125 139.673828,65.2792969 140.552734,67.6816406 C141.431641,70.0839844 142.650391,72.1113281 144.208984,73.7636719 C145.767578,75.4160156 147.607422,76.6699219 149.728516,77.5253906 C151.849609,78.3808594 154.140625,78.8085938 156.601562,78.8085938 Z M157.445312,73.1132812 C155.78125,73.1132812 154.246094,72.8203125 152.839844,72.234375 C151.433594,71.6484375 150.226562,70.7753906 149.21875,69.6152344 C148.210938,68.4550781 147.425781,67.0195312 146.863281,65.3085938 C146.300781,63.5976562 146.019531,61.6171875 146.019531,59.3671875 C146.019531,57.3046875 146.3125,55.4765625 146.898438,53.8828125 C147.484375,52.2890625 148.287109,50.9414062 149.306641,49.8398438 C150.326172,48.7382812 151.515625,47.9003906 152.875,47.3261719 C154.234375,46.7519531 155.6875,46.4648438 157.234375,46.4648438 C158.828125,46.4648438 160.386719,46.6875 161.910156,47.1328125 C163.433594,47.578125 164.78125,48.2929688 165.953125,49.2773438 L165.953125,49.2773438 L165.953125,69.6679688 C164.851562,70.8164062 163.644531,71.6777344 162.332031,72.2519531 C161.019531,72.8261719 159.390625,73.1132812 157.445312,73.1132812 Z" id="d" fill="#0E79B2" fill-rule="nonzero"></path>
        <path d="M134.585938,77 L134.585938,70.953125 L128.398438,70.953125 L128.398438,53.375 C128.632812,52.109375 129.013672,51.0136719 129.541016,50.0878906 C130.068359,49.1621094 130.683594,48.4003906 131.386719,47.8027344 C132.089844,47.2050781 132.845703,46.7597656 133.654297,46.4667969 C134.462891,46.1738281 135.253906,46.0273438 136.027344,46.0273438 L136.027344,46.0273438 L136.027344,48.2773438 L142.707031,48.2773438 L142.707031,40.3671875 C141.628906,40.3203125 140.550781,40.296875 139.472656,40.296875 L139.472656,40.296875 L136.027344,40.296875 C135.113281,40.296875 134.263672,40.4316406 133.478516,40.7011719 C132.693359,40.9707031 131.978516,41.3457031 131.333984,41.8261719 C130.689453,42.3066406 130.103516,42.8691406 129.576172,43.5136719 C129.048828,44.1582031 128.574219,44.8554688 128.152344,45.6054688 L128.152344,45.6054688 L128.152344,40.578125 L116.515625,40.578125 L116.515625,46.625 L121.578125,46.625 L121.542969,70.953125 L116.515625,70.953125 L116.515625,77 L134.585938,77 Z" id="r" fill="#0E79B2" fill-rule="nonzero"></path>
    </g>
</svg>